<svg id="livetype" xmlns="http://www.w3.org/2000/svg" xmlns:xlink="http://www.w3.org/1999/xlink" viewBox="0 0 119.66 40"><defs><style>.cls-1{fill:#b7b7b7;}.cls-2,.cls-9{fill:#fff;}.cls-3{fill:url(#linear-gradient);}.cls-4{fill:url(#linear-gradient-2);}.cls-5{fill:url(#linear-gradient-3);}.cls-6{fill:url(#linear-gradient-4);}.cls-7,.cls-8{fill:#020101;}.cls-7{opacity:0.2;}.cls-7,.cls-8,.cls-9{isolation:isolate;}.cls-8{opacity:0.12;}.cls-9{opacity:0.25;}</style><linearGradient id="linear-gradient" x1="20.67" y1="-243.63" x2="6.21" y2="-258.1" gradientTransform="matrix(1, 0, 0, -1, 0, -233.83)" gradientUnits="userSpaceOnUse"><stop offset="0" stop-color="#4699d0"/><stop offset="0.01" stop-color="#459ad1"/><stop offset="0.26" stop-color="#1abaeb"/><stop offset="0.51" stop-color="#4ec3ed"/><stop offset="0.76" stop-color="#6ac8e7"/><stop offset="1" stop-color="#72cae5"/></linearGradient><linearGradient id="linear-gradient-2" x1="31.05" y1="-253.37" x2="10.19" y2="-253.37" gradientTransform="matrix(1, 0, 0, -1, 0, -233.83)" gradientUnits="userSpaceOnUse"><stop offset="0" stop-color="#ffe103"/><stop offset="0.41" stop-color="#fdbd00"/><stop offset="0.78" stop-color="#f8a500"/><stop offset="1" stop-color="#f69b00"/></linearGradient><linearGradient id="linear-gradient-3" x1="23.28" y1="-255.35" x2="3.66" y2="-274.97" gradientTransform="matrix(1, 0, 0, -1, 0, -233.83)" gradientUnits="userSpaceOnUse"><stop offset="0" stop-color="#e93a3d"/><stop offset="1" stop-color="#c41463"/></linearGradient><linearGradient id="linear-gradient-4" x1="8.17" y1="-236.28" x2="16.93" y2="-245.04" gradientTransform="matrix(1, 0, 0, -1, 0, -233.83)" gradientUnits="userSpaceOnUse"><stop offset="0" stop-color="#33a071"/><stop offset="0.07" stop-color="#30a772"/><stop offset="0.48" stop-color="#54b867"/><stop offset="0.8" stop-color="#6bbe66"/><stop offset="1" stop-color="#72c066"/></linearGradient></defs><title>Android_France</title><path class="cls-1" d="M110.13-.06H7.52a13.51,13.51,0,0,0-2,.18,6.74,6.74,0,0,0-1.9.63A6.07,6.07,0,0,0,2,1.94,6.07,6.07,0,0,0,.82,3.56a6.74,6.74,0,0,0-.63,1.9,12.18,12.18,0,0,0-.17,2c0,.31,0,.62,0,.92V31.5c0,.31,0,.61,0,.92a12.18,12.18,0,0,0,.17,2,6.8,6.8,0,0,0,.63,1.91A6.19,6.19,0,0,0,2,37.94a6.3,6.3,0,0,0,1.62,1.18,6.74,6.74,0,0,0,1.9.63,13.51,13.51,0,0,0,2,.18H112.14a13.39,13.39,0,0,0,2-.18,6.91,6.91,0,0,0,1.91-.63,6.47,6.47,0,0,0,1.62-1.18,6.68,6.68,0,0,0,1.18-1.61,7.12,7.12,0,0,0,.62-1.91,13.39,13.39,0,0,0,.18-2c0-.31,0-.61,0-.92V8.38c0-.3,0-.61,0-.92a13.39,13.39,0,0,0-.18-2,7.05,7.05,0,0,0-.62-1.9,6.54,6.54,0,0,0-1.18-1.62A6.24,6.24,0,0,0,116.05.76a6.91,6.91,0,0,0-1.91-.63,13.39,13.39,0,0,0-2-.18h-2Z"/><path d="M8.44,39.06h-.9a11.52,11.52,0,0,1-1.87-.16A5.89,5.89,0,0,1,4,38.34a5.16,5.16,0,0,1-1.39-1,5.19,5.19,0,0,1-1-1.4,5.89,5.89,0,0,1-.55-1.66A12.1,12.1,0,0,1,.89,32.4c0-.21,0-.92,0-.92V8.38s0-.69,0-.89a11.9,11.9,0,0,1,.16-1.87A5.86,5.86,0,0,1,1.6,4a5.16,5.16,0,0,1,1-1.39,5.81,5.81,0,0,1,1.4-1A5.77,5.77,0,0,1,5.67,1,12.1,12.1,0,0,1,7.54.83l.91,0H111.21l.92,0A12.08,12.08,0,0,1,114,1a5.65,5.65,0,0,1,1.67.55A5.49,5.49,0,0,1,118.07,4a5.92,5.92,0,0,1,.54,1.65,13.54,13.54,0,0,1,.17,1.88v.89c0,.38,0,.73,0,1.09V30.4c0,.37,0,.72,0,1.08v.93a13.26,13.26,0,0,1-.17,1.85,5.85,5.85,0,0,1-.54,1.67,5.42,5.42,0,0,1-1,1.39,5.19,5.19,0,0,1-1.4,1,5.89,5.89,0,0,1-1.66.55,11.52,11.52,0,0,1-1.87.16H8.44Z"/><path class="cls-2" d="M59.76,21a3.67,3.67,0,1,0,3.68,3.67A3.62,3.62,0,0,0,59.76,21Zm0,5.89a2.23,2.23,0,1,1,2.07-2.22A2.12,2.12,0,0,1,59.76,26.93Zm-8-5.89a3.67,3.67,0,1,0,3.68,3.67A3.62,3.62,0,0,0,51.73,21Zm0,5.89a2.23,2.23,0,1,1,2.07-2.22A2.12,2.12,0,0,1,51.73,26.93Zm-9.55-4.76v1.55H45.9a3.19,3.19,0,0,1-.85,2,3.81,3.81,0,0,1-2.87,1.14,4.14,4.14,0,0,1,0-8.28A4,4,0,0,1,45,19.65l1.1-1.09A5.42,5.42,0,0,0,42.18,17a5.7,5.7,0,1,0,0,11.39,5.22,5.22,0,0,0,4-1.6,5.13,5.13,0,0,0,1.35-3.64,4.71,4.71,0,0,0-.09-1Zm39.06,1.21A3.42,3.42,0,0,0,78.1,21a3.49,3.49,0,0,0-3.46,3.67,3.59,3.59,0,0,0,3.64,3.67,3.66,3.66,0,0,0,3.06-1.63l-1.25-.83a2.1,2.1,0,0,1-1.81,1,1.87,1.87,0,0,1-1.78-1.11l4.91-2Zm-5,1.22a2,2,0,0,1,1.92-2.14,1.42,1.42,0,0,1,1.36.78Zm-4,3.55h1.61V17.38H72.25Zm-2.64-6.29h0A2.55,2.55,0,0,0,67.63,21a3.67,3.67,0,0,0,0,7.34,2.49,2.49,0,0,0,1.93-.84h0v.53c0,1.4-.75,2.15-2,2.15a2,2,0,0,1-1.85-1.3l-1.4.58a3.49,3.49,0,0,0,3.25,2.17c1.88,0,3.48-1.11,3.48-3.82V21.27H69.61Zm-1.84,5.07a2.23,2.23,0,0,1,0-4.44,2.07,2.07,0,0,1,2,2.23A2.05,2.05,0,0,1,67.77,26.93Zm21-9.55H84.93V28.15h1.61V24.07h2.25a3.35,3.35,0,1,0,0-6.69Zm0,5.19H86.54V18.88h2.29a1.85,1.85,0,1,1,0,3.69ZM98.77,21a3,3,0,0,0-2.87,1.65l1.43.6a1.51,1.51,0,0,1,1.47-.79,1.55,1.55,0,0,1,1.69,1.39V24a3.52,3.52,0,0,0-1.68-.42c-1.54,0-3.1.85-3.1,2.43a2.49,2.49,0,0,0,2.67,2.37,2.28,2.28,0,0,0,2.05-1.05h.06v.83H102V24A3,3,0,0,0,98.77,21Zm-.19,5.91c-.53,0-1.27-.26-1.27-.91,0-.84.92-1.16,1.71-1.16a2.83,2.83,0,0,1,1.47.37A2,2,0,0,1,98.58,26.93Zm9.12-5.67-1.84,4.67h-.06l-1.91-4.67h-1.74L105,27.79l-1.63,3.63h1.67l4.43-10.16ZM93.21,28.15h1.61V17.38H93.21Z"/><path class="cls-3" d="M10.88,8.79a1.74,1.74,0,0,0-.4,1.21V29.07a1.74,1.74,0,0,0,.4,1.21l.06.06L21.62,19.66v-.25L10.94,8.73Z"/><path class="cls-4" d="M25.18,23.22l-3.56-3.56v-.25l3.56-3.56.08,0,4.22,2.4a1.31,1.31,0,0,1,0,2.49l-4.22,2.4Z"/><path class="cls-5" d="M25.26,23.18l-3.64-3.65L10.88,30.28a1.4,1.4,0,0,0,1.79,0l12.59-7.15"/><path class="cls-6" d="M25.26,15.89,12.67,8.74a1.4,1.4,0,0,0-1.79,0L21.62,19.53Z"/><path class="cls-7" d="M25.18,23.1,12.67,30.21a1.45,1.45,0,0,1-1.73,0h0l-.06.06h0l.06.06h0a1.44,1.44,0,0,0,1.73,0l12.59-7.15Z"/><path class="cls-8" d="M10.88,30.15a1.71,1.71,0,0,1-.4-1.21v.13a1.74,1.74,0,0,0,.4,1.21l.06-.06Z"/><path class="cls-8" d="M29.48,20.65l-4.3,2.45.08.08,4.22-2.4a1.51,1.51,0,0,0,.9-1.25h0A1.59,1.59,0,0,1,29.48,20.65Z"/><path class="cls-9" d="M12.67,8.86l16.81,9.56a1.59,1.59,0,0,1,.9,1.11h0a1.51,1.51,0,0,0-.9-1.24L12.67,8.74c-1.21-.69-2.19-.12-2.19,1.26v.13C10.48,8.75,11.46,8.18,12.67,8.86Z"/><path class="cls-2" d="M36.94,13.59V8.21h1.65a2.68,2.68,0,0,1,2,.75,2.6,2.6,0,0,1,.75,1.94,2.61,2.61,0,0,1-.75,1.95,2.67,2.67,0,0,1-2,.74Zm.69-4.71v4h1a2,2,0,0,0,1.48-.53,2,2,0,0,0,.54-1.5,1.87,1.87,0,0,0-2-2Z"/><path class="cls-2" d="M42.68,13.59H42V8.21h.7Z"/><path class="cls-2" d="M46.93,12.16a1.37,1.37,0,0,1-.52,1.13,2,2,0,0,1-1.28.42A1.9,1.9,0,0,1,44,13.32a2,2,0,0,1-.7-1.06l.66-.27a1.52,1.52,0,0,0,.19.43,1.54,1.54,0,0,0,.28.34,1.25,1.25,0,0,0,.35.21,1,1,0,0,0,.42.08,1.2,1.2,0,0,0,.77-.24.79.79,0,0,0,.3-.65.76.76,0,0,0-.25-.58,2.27,2.27,0,0,0-.87-.45,7.59,7.59,0,0,1-.8-.32,1.38,1.38,0,0,1-.86-1.28,1.34,1.34,0,0,1,.47-1,1.77,1.77,0,0,1,1.19-.42,1.8,1.8,0,0,1,1.06.32,1.45,1.45,0,0,1,.6.77l-.64.27a1,1,0,0,0-.36-.5,1.06,1.06,0,0,0-.65-.19,1,1,0,0,0-.68.22.64.64,0,0,0-.28.55.64.64,0,0,0,.22.48,3.64,3.64,0,0,0,1,.48,2.65,2.65,0,0,1,1.17.68A1.48,1.48,0,0,1,46.93,12.16Z"/><path class="cls-2" d="M48.3,11.42v2.17h-.69V8.21h1.84a1.65,1.65,0,0,1,1.18.47,1.55,1.55,0,0,1,0,2.28,1.66,1.66,0,0,1-1.18.46Zm0-2.54v1.87h1.16a.94.94,0,0,0,1-.94,1,1,0,0,0-1-.93Z"/><path class="cls-2" d="M56.89,10.9a2.73,2.73,0,0,1-2.76,2.81,2.66,2.66,0,0,1-2-.81,2.72,2.72,0,0,1-.8-2,2.71,2.71,0,0,1,.8-2,2.63,2.63,0,0,1,2-.82,2.68,2.68,0,0,1,2,.82A2.72,2.72,0,0,1,56.89,10.9Zm-4.82,0a2.12,2.12,0,0,0,.58,1.54,2,2,0,0,0,1.48.61,1.93,1.93,0,0,0,1.46-.61,2.08,2.08,0,0,0,.6-1.54,2.1,2.1,0,0,0-.6-1.54,2,2,0,0,0-1.46-.6,2,2,0,0,0-1.48.6A2.14,2.14,0,0,0,52.07,10.9Z"/><path class="cls-2" d="M58.25,13.59h-.69V8.21h.84L61,12.4h0l0-1V8.21h.69v5.38H61L58.25,9.21h0l0,1Z"/><path class="cls-2" d="M63.33,13.59h-.69V8.21h.69Z"/><path class="cls-2" d="M64.26,13.59V8.21h1.95a1.54,1.54,0,0,1,1.1.43,1.35,1.35,0,0,1,.46,1A1.15,1.15,0,0,1,67,10.8v0a1.37,1.37,0,0,1,.66.47,1.28,1.28,0,0,1,.25.76,1.4,1.4,0,0,1-.49,1.1,1.6,1.6,0,0,1-1.14.43ZM65,8.88v1.64h1.26a.84.84,0,0,0,.62-.25.81.81,0,0,0,0-1.15.79.79,0,0,0-.59-.24Zm0,2.29v1.76h1.39a.83.83,0,0,0,.64-.26.87.87,0,0,0,0-1.24.89.89,0,0,0-.66-.26Z"/><path class="cls-2" d="M71.6,13.59h-3V8.21h.69v4.72H71.6Z"/><path class="cls-2" d="M75.31,8.21v.67H72.86v1.7h2.21v.65H72.86v1.7h2.45v.66H72.17V8.21Z"/><path class="cls-2" d="M80.69,12.16a1.37,1.37,0,0,1-.52,1.13,2,2,0,0,1-1.28.42,1.9,1.9,0,0,1-1.18-.39,2,2,0,0,1-.7-1.06l.66-.27a1.52,1.52,0,0,0,.19.43,1.54,1.54,0,0,0,.28.34,1.13,1.13,0,0,0,.35.21,1,1,0,0,0,.42.08,1.2,1.2,0,0,0,.77-.24.79.79,0,0,0,.3-.65.76.76,0,0,0-.25-.58,2.27,2.27,0,0,0-.87-.45,7.59,7.59,0,0,1-.8-.32,1.38,1.38,0,0,1-.86-1.28,1.34,1.34,0,0,1,.47-1,1.77,1.77,0,0,1,1.19-.42,1.8,1.8,0,0,1,1.06.32,1.45,1.45,0,0,1,.6.77l-.64.27a1,1,0,0,0-.36-.5,1.06,1.06,0,0,0-.65-.19,1,1,0,0,0-.68.22.64.64,0,0,0-.28.55.64.64,0,0,0,.22.48,3.64,3.64,0,0,0,1,.48,2.65,2.65,0,0,1,1.17.68A1.48,1.48,0,0,1,80.69,12.16Z"/><path class="cls-2" d="M83.24,13.71a1.89,1.89,0,0,1-1.44-.58,2.13,2.13,0,0,1-.55-1.53V8.21h.69v3.42a1.5,1.5,0,0,0,.35,1,1.39,1.39,0,0,0,1.91,0,1.5,1.5,0,0,0,.34-1V8.21h.69V11.6a2.14,2.14,0,0,1-.54,1.54A1.9,1.9,0,0,1,83.24,13.71Z"/><path class="cls-2" d="M86.74,13.59h-.69V8.21h1.83a1.67,1.67,0,0,1,1.19.47,1.46,1.46,0,0,1,.49,1.13,1.51,1.51,0,0,1-.36,1,1.63,1.63,0,0,1-.92.55l0,0,1.51,2.18v0H89L87.5,11.42h-.76Zm0-4.71v1.89h1.11a1,1,0,0,0,.71-.28.87.87,0,0,0,.3-.68.92.92,0,0,0-.28-.65.9.9,0,0,0-.69-.28Z"/></svg>